<svg xmlns="http://www.w3.org/2000/svg" width="32" height="32" viewBox="0 0 32 32">
  <defs>
    <linearGradient id="bg" x1="0%" y1="0%" x2="0%" y2="100%">
      <stop offset="0%" stop-color="#60a5fa"/>
      <stop offset="100%" stop-color="#2563eb"/>
    </linearGradient>
  </defs>
  <rect width="32" height="32" rx="8" fill="url(#bg)"/>
  <!-- Cloud body -->
  <path d="M9 21.5c-2.2 0-4-1.6-4-3.6 0-1.7 1.2-3.1 2.9-3.5C8.4 11.5 11 9 14.2 9c2.7 0 5 1.8 5.7 4.2.4-.1.7-.2 1.1-.2 2.5 0 4.5 1.8 4.5 4.1s-2 4.1-4.5 4.1H9z" fill="white"/>
  <!-- Up arrow inside cloud -->
  <path d="M16 14l-3 3h2v3h2v-3h2z" fill="#2563eb"/>
</svg>
